# xmcd CD database file
#
# Track frame offsets:
#	150
#	13110
#	25765
#	39730
#	53392
#	66560
#	80695
#	93662
#	107247
#	122892
#
# Disc length: 1815 seconds
#
# Revision: 4
# Processed by: cddbd v1.5.1PL2 Copyright (c) Steve Scherf et al.
# Submitted via: CDex 1.51
#
DISCID=8607150a
DTITLE=Various Artist - Borders Presents The Best Of The Blues On Chess Records
DYEAR=2000
DGENRE=Blues
TTITLE0=Muddy Waters - Forty Days And Forty Nights
TTITLE1=Etta James - Something's Got A Hold On Me
TTITLE2=John Lee Hooker - Worried Life Blues
TTITLE3=Buddy Guy - My Time After A While
TTITLE4=Little Walter - Mean Old World
TTITLE5=Howlin' Wolf - Smokestack Lightning
TTITLE6=Jimmy Rogers - Luedella
TTITLE7=Koko Taylor - Wang Dang Doodle
TTITLE8=Sonny Boy Williamson - Nine Below Zero
TTITLE9=Willie Dixon - Tail Dragger
EXTD=YEAR: 2000
EXTT0=
EXTT1=
EXTT2=
EXTT3=
EXTT4=
EXTT5=
EXTT6=
EXTT7=
EXTT8=
EXTT9=
PLAYORDER=
